<svg width="186" height="78" viewBox="0 0 186 78" fill="none" xmlns="http://www.w3.org/2000/svg">
<path fill-rule="evenodd" clip-rule="evenodd" d="M139.717 49.769H145.883L151.19 37.4318H172.387L177.614 49.769H183.781L162.575 0.677063L160.974 0.677063L139.717 49.769ZM153.631 31.9057L161.853 12.1147L170.075 31.9057H153.631Z" fill="#1A2545"/>
<path fill-rule="evenodd" clip-rule="evenodd" d="M160.529 0H163.02L184.811 50.4461H177.166L171.939 38.1088H151.636L146.329 50.4461H138.686L160.529 0ZM161.419 1.35411L140.748 49.092H145.437L150.744 36.7547H172.836L178.063 49.092H182.751L162.13 1.35411H161.419ZM161.853 10.3499L171.089 32.5828H152.617L161.853 10.3499ZM154.646 31.2287H169.06L161.853 13.8795L154.646 31.2287Z" fill="#1A2545"/>
<path fill-rule="evenodd" clip-rule="evenodd" d="M102.14 28.5644C102.112 38.8346 105.183 43.9454 112.674 43.9859C120.036 43.9454 123.107 38.8346 123.08 28.5644V0.677063H128.861V30.6206C128.861 36.2038 127.726 41.0023 124.75 44.5C121.646 48.1163 117.792 49.769 112.674 49.769C107.428 49.769 103.573 48.1185 100.47 44.5C97.4935 41.0023 96.3589 36.2038 96.3589 30.6206V0.677063H102.14V28.5644Z" fill="#1A2545"/>
<path fill-rule="evenodd" clip-rule="evenodd" d="M95.6818 0H102.817V28.5644L102.817 28.5662C102.803 33.6599 103.563 37.34 105.152 39.7373C106.702 42.0766 109.106 43.2887 112.674 43.3089C116.173 43.2888 118.546 42.0799 120.082 39.7398C121.656 37.3413 122.416 33.6595 122.403 28.5662L122.403 28.5644V0H129.538V30.6206C129.538 36.2808 128.39 41.2671 125.265 44.9388L125.264 44.9409C122.018 48.7225 117.968 50.4461 112.674 50.4461C107.254 50.4461 103.203 48.7269 99.9558 44.9408L99.9541 44.9388C96.8298 41.2671 95.6818 36.2808 95.6818 30.6206V0ZM97.0359 1.35411V30.6206C97.0359 36.1262 98.1568 40.7364 100.984 44.0602C103.944 47.5104 107.601 49.092 112.674 49.092C117.615 49.092 121.274 47.5103 124.236 44.0596C127.063 40.7359 128.184 36.1258 128.184 30.6206V1.35411H123.757L123.757 28.5626C123.757 28.5629 123.757 28.5622 123.757 28.5626C123.771 33.739 123.009 37.7484 121.214 40.4828C119.381 43.2749 116.539 44.6417 112.678 44.663H112.67C108.749 44.6417 105.874 43.2783 104.023 40.4853C102.211 37.7497 101.449 33.7395 101.463 28.5634V1.35411H97.0359Z" fill="#1A2545"/>
<path fill-rule="evenodd" clip-rule="evenodd" d="M62.1456 49.769H83.6727L81.1633 44.243H67.9266L67.8856 0.677063H62.1046L62.1456 49.769Z" fill="#1A2545"/>
<path fill-rule="evenodd" clip-rule="evenodd" d="M61.4271 0H68.5621L68.6031 43.5659H81.5996L84.7239 50.4461H61.4693L61.4271 0ZM62.7824 1.35411L62.8222 49.092H82.6218L80.7273 44.92H67.2503L67.2093 1.35411H62.7824Z" fill="#1A2545"/>
<path fill-rule="evenodd" clip-rule="evenodd" d="M2.56525 49.769H8.73162L14.0148 37.4318H35.2117L40.4627 49.769H46.6291L25.4061 0.677063L23.8052 0.677063L2.56525 49.769ZM16.4557 31.9057L24.6775 12.1147L32.8993 31.9057H16.4557Z" fill="#1A2545"/>
<path fill-rule="evenodd" clip-rule="evenodd" d="M23.3606 0H25.8511L47.6595 50.4461H40.0152L34.7642 38.1088H14.4615L9.17833 50.4461H1.53473L23.3606 0ZM24.2501 1.35411L3.59601 49.092H8.28515L13.5684 36.7547H35.6595L40.9105 49.092H45.5989L24.9613 1.35411H24.2501ZM24.6776 10.3499L33.9139 32.5828H15.4414L24.6776 10.3499ZM17.4702 31.2287H31.885L24.6776 13.8795L17.4702 31.2287Z" fill="#1A2545"/>
<path d="M0.499878 72.1659C0.499878 71.5205 0.614074 70.8849 0.842468 70.2593C1.08079 69.6238 1.42338 69.0578 1.87024 68.5613C2.3171 68.0648 2.86325 67.6626 3.50871 67.3548C4.15417 67.0469 4.889 66.893 5.71321 66.893C6.68636 66.893 7.52546 67.1065 8.2305 67.5335C8.94547 67.9605 9.47674 68.5166 9.82429 69.2018L8.2454 70.2891C8.10637 69.9912 7.93756 69.743 7.73896 69.5444C7.54036 69.3358 7.32686 69.172 7.09846 69.0528C6.87007 68.9337 6.63175 68.8492 6.38349 68.7996C6.13524 68.74 5.89195 68.7102 5.65363 68.7102C5.13726 68.7102 4.68544 68.8145 4.29816 69.023C3.92081 69.2316 3.60305 69.5046 3.34487 69.8423C3.09661 70.17 2.90794 70.5473 2.77885 70.9743C2.64976 71.3914 2.58521 71.8084 2.58521 72.2255C2.58521 72.6922 2.65969 73.144 2.80864 73.581C2.95759 74.008 3.16612 74.3853 3.43424 74.713C3.71228 75.0407 4.03998 75.3038 4.41732 75.5024C4.8046 75.7011 5.22663 75.8004 5.68342 75.8004C5.92174 75.8004 6.16999 75.7706 6.42818 75.711C6.68636 75.6514 6.92965 75.5571 7.15804 75.428C7.39637 75.2989 7.61483 75.135 7.81344 74.9364C8.01204 74.7279 8.17092 74.4796 8.29008 74.1917L9.97324 75.1599C9.80443 75.5571 9.56114 75.9096 9.24338 76.2174C8.93554 76.5153 8.58302 76.7685 8.18582 76.9771C7.79854 77.1856 7.38147 77.3445 6.93462 77.4537C6.48776 77.563 6.05083 77.6176 5.62384 77.6176C4.86914 77.6176 4.179 77.4587 3.5534 77.1409C2.9278 76.8232 2.38661 76.4111 1.92982 75.9046C1.48296 75.3883 1.13044 74.8073 0.872259 74.1619C0.624005 73.5065 0.499878 72.8412 0.499878 72.1659Z" fill="#1A2545"/>
<path d="M19.0401 77.6027C18.2656 77.6027 17.5605 77.4537 16.925 77.1558C16.2994 76.848 15.7582 76.4458 15.3014 75.9493C14.8546 75.4429 14.507 74.8669 14.2588 74.2215C14.0105 73.576 13.8864 72.9156 13.8864 72.2404C13.8864 71.5354 14.0155 70.8601 14.2737 70.2146C14.5418 69.5692 14.9042 68.9982 15.361 68.5017C15.8277 68.0052 16.3789 67.6129 17.0144 67.325C17.6499 67.0271 18.3401 66.8781 19.0848 66.8781C19.8494 66.8781 20.5445 67.037 21.1701 67.3548C21.8057 67.6626 22.3469 68.0697 22.7937 68.5762C23.2406 69.0826 23.5881 69.6586 23.8364 70.304C24.0846 70.9495 24.2088 71.6049 24.2088 72.2702C24.2088 72.9752 24.0797 73.6505 23.8215 74.2959C23.5633 74.9315 23.2058 75.4975 22.749 75.994C22.2923 76.4806 21.7461 76.8728 21.1106 77.1707C20.475 77.4587 19.7849 77.6027 19.0401 77.6027ZM15.9717 72.2404C15.9717 72.6972 16.0412 73.1391 16.1802 73.5661C16.3193 73.9931 16.5179 74.3704 16.7761 74.6981C17.0442 75.0258 17.3669 75.289 17.7442 75.4876C18.1315 75.6862 18.5684 75.7855 19.055 75.7855C19.5515 75.7855 19.9885 75.6862 20.3658 75.4876C20.7531 75.279 21.0758 75.0059 21.334 74.6683C21.6021 74.3307 21.8007 73.9533 21.9298 73.5363C22.0688 73.1093 22.1383 72.6773 22.1383 72.2404C22.1383 71.7836 22.0639 71.3417 21.9149 70.9147C21.7759 70.4877 21.5723 70.1104 21.3042 69.7827C21.046 69.455 20.7233 69.1968 20.336 69.0081C19.9587 68.8095 19.5317 68.7102 19.055 68.7102C18.5585 68.7102 18.1166 68.8145 17.7294 69.023C17.3421 69.2216 17.0193 69.4897 16.7612 69.8274C16.503 70.1551 16.3044 70.5324 16.1654 70.9594C16.0363 71.3765 15.9717 71.8035 15.9717 72.2404Z" fill="#1A2545"/>
<path d="M31.1181 70.7509V77.5282H29.0625V66.9526H30.6563L36.1675 73.8938V66.9675H38.2231V77.5282H36.5548L31.1181 70.7509Z" fill="#1A2545"/>
<path d="M45.7555 70.7509V77.5282H43.7V66.9526H45.2938L50.805 73.8938V66.9675H52.8606V77.5282H51.1923L45.7555 70.7509Z" fill="#1A2545"/>
<path d="M65.6808 75.7259V77.5282H58.3375V66.9526H65.5468V68.7549H60.393V71.302H64.8467V72.9703H60.393V75.7259H65.6808Z" fill="#1A2545"/>
<path d="M69.7016 72.1659C69.7016 71.5205 69.8158 70.8849 70.0442 70.2593C70.2825 69.6238 70.6251 69.0578 71.072 68.5613C71.5188 68.0648 72.065 67.6626 72.7104 67.3548C73.3559 67.0469 74.0907 66.893 74.9149 66.893C75.8881 66.893 76.7272 67.1065 77.4322 67.5335C78.1472 67.9605 78.6784 68.5166 79.026 69.2018L77.4471 70.2891C77.3081 69.9912 77.1393 69.743 76.9407 69.5444C76.7421 69.3358 76.5286 69.172 76.3002 69.0528C76.0718 68.9337 75.8335 68.8492 75.5852 68.7996C75.337 68.74 75.0937 68.7102 74.8553 68.7102C74.339 68.7102 73.8871 68.8145 73.4999 69.023C73.1225 69.2316 72.8048 69.5046 72.5466 69.8423C72.2983 70.17 72.1097 70.5473 71.9806 70.9743C71.8515 71.3914 71.7869 71.8084 71.7869 72.2255C71.7869 72.6922 71.8614 73.144 72.0104 73.581C72.1593 74.008 72.3678 74.3853 72.6359 74.713C72.914 75.0407 73.2417 75.3038 73.619 75.5024C74.0063 75.7011 74.4283 75.8004 74.8851 75.8004C75.1234 75.8004 75.3717 75.7706 75.6299 75.711C75.8881 75.6514 76.1314 75.5571 76.3598 75.428C76.5981 75.2989 76.8165 75.135 77.0151 74.9364C77.2137 74.7279 77.3726 74.4796 77.4918 74.1917L79.175 75.1599C79.0061 75.5571 78.7628 75.9096 78.4451 76.2174C78.1372 76.5153 77.7847 76.7685 77.3875 76.9771C77.0002 77.1856 76.5832 77.3445 76.1363 77.4537C75.6895 77.563 75.2525 77.6176 74.8255 77.6176C74.0709 77.6176 73.3807 77.4587 72.7551 77.1409C72.1295 76.8232 71.5883 76.4111 71.1315 75.9046C70.6847 75.3883 70.3322 74.8073 70.074 74.1619C69.8257 73.5065 69.7016 72.8412 69.7016 72.1659Z" fill="#1A2545"/>
<path d="M91.638 68.7549H88.2567V77.5282H86.2161V68.7549H82.8349V66.9526H91.638V68.7549Z" fill="#1A2545"/>
<path d="M96.2278 77.5282V66.9526H98.2833V77.5282H96.2278Z" fill="#1A2545"/>
<path d="M105.822 70.7509V77.5282H103.767V66.9526H105.361L110.872 73.8938V66.9675H112.927V77.5282H111.259L105.822 70.7509Z" fill="#1A2545"/>
<path d="M125.748 76.3366C124.903 77.1806 123.92 77.6027 122.798 77.6027C122.103 77.6027 121.448 77.4637 120.832 77.1856C120.226 76.9076 119.695 76.5253 119.238 76.0387C118.791 75.5521 118.434 74.9811 118.166 74.3257C117.908 73.6604 117.779 72.9454 117.779 72.1808C117.779 71.4559 117.908 70.7757 118.166 70.1402C118.434 69.4947 118.796 68.9337 119.253 68.457C119.72 67.9704 120.266 67.5881 120.892 67.3101C121.517 67.0221 122.198 66.8781 122.932 66.8781C123.925 66.8781 124.774 67.0866 125.479 67.5037C126.194 67.9208 126.731 68.4818 127.088 69.1869L125.554 70.3189C125.286 69.7926 124.908 69.3904 124.422 69.1124C123.945 68.8344 123.424 68.6953 122.858 68.6953C122.411 68.6953 121.999 68.7897 121.622 68.9783C121.254 69.167 120.936 69.4252 120.668 69.7529C120.41 70.0806 120.207 70.4579 120.058 70.8849C119.919 71.3119 119.849 71.7637 119.849 72.2404C119.849 72.7369 119.928 73.2036 120.087 73.6405C120.246 74.0675 120.465 74.4399 120.743 74.7577C121.021 75.0755 121.348 75.3287 121.726 75.5173C122.113 75.6961 122.53 75.7855 122.977 75.7855C124 75.7855 124.923 75.3038 125.748 74.3406V73.5959H123.618V72.0914H127.446V77.5282H125.748V76.3366Z" fill="#1A2545"/>
<path d="M139.33 77.5282V66.9526H146.435V68.7549H141.385V71.4807H145.586V73.149H141.385V77.5282H139.33Z" fill="#1A2545"/>
<path d="M153.005 66.9526H154.822L158.844 77.5282H156.729L155.746 74.8917H152.052L151.083 77.5282H148.968L153.005 66.9526ZM155.373 73.4469L153.913 69.2911L152.394 73.4469H155.373Z" fill="#1A2545"/>
<path d="M165.336 70.7509V77.5282H163.281V66.9526H164.875L170.386 73.8938V66.9675H172.441V77.5282H170.773L165.336 70.7509Z" fill="#1A2545"/>
<path d="M184.219 69.7231C184.149 69.6536 184.02 69.5593 183.832 69.4401C183.653 69.3209 183.429 69.2067 183.161 69.0975C182.903 68.9783 182.62 68.879 182.312 68.7996C182.004 68.7202 181.692 68.6804 181.374 68.6804C180.808 68.6804 180.386 68.7847 180.108 68.9932C179.83 69.2018 179.691 69.4947 179.691 69.8721C179.691 70.0905 179.74 70.2742 179.84 70.4232C179.949 70.5622 180.103 70.6863 180.301 70.7956C180.5 70.9048 180.748 71.0041 181.046 71.0935C181.354 71.1828 181.707 71.2772 182.104 71.3765C182.62 71.5155 183.087 71.6644 183.504 71.8233C183.931 71.9822 184.288 72.1808 184.576 72.4191C184.874 72.6575 185.103 72.9454 185.262 73.2831C185.42 73.6108 185.5 74.0179 185.5 74.5045C185.5 75.0705 185.391 75.5571 185.172 75.9642C184.964 76.3614 184.676 76.6841 184.308 76.9324C183.951 77.1806 183.534 77.3644 183.057 77.4835C182.59 77.5927 182.099 77.6474 181.582 77.6474C180.788 77.6474 180.004 77.5282 179.229 77.2899C178.454 77.0516 177.759 76.7139 177.144 76.277L178.052 74.5045C178.142 74.5938 178.301 74.713 178.529 74.862C178.767 75.001 179.045 75.145 179.363 75.2939C179.681 75.4329 180.033 75.5521 180.421 75.6514C180.808 75.7507 181.205 75.8004 181.612 75.8004C182.744 75.8004 183.31 75.4379 183.31 74.713C183.31 74.4846 183.246 74.291 183.117 74.1321C182.988 73.9732 182.804 73.8342 182.566 73.715C182.327 73.5959 182.039 73.4866 181.702 73.3873C181.364 73.288 180.987 73.1788 180.57 73.0596C180.063 72.9206 179.621 72.7717 179.244 72.6128C178.876 72.444 178.569 72.2503 178.32 72.0319C178.072 71.8035 177.883 71.5453 177.754 71.2573C177.635 70.9594 177.576 70.6069 177.576 70.1997C177.576 69.6635 177.675 69.1869 177.874 68.7698C178.072 68.3527 178.345 68.0052 178.693 67.7271C179.05 67.4491 179.462 67.2406 179.929 67.1015C180.396 66.9526 180.897 66.8781 181.433 66.8781C182.178 66.8781 182.863 66.9973 183.489 67.2356C184.115 67.464 184.661 67.7371 185.128 68.0548L184.219 69.7231Z" fill="#1A2545"/>
</svg>
