<svg width="75" height="22" viewBox="0 0 75 22" fill="none" xmlns="http://www.w3.org/2000/svg">
<path fill-rule="evenodd" clip-rule="evenodd" d="M55.9258 21.6868H58.4155L60.5583 16.551H69.1169L71.2274 21.6868H73.7172L65.155 1.25058L64.5087 1.25058L55.9258 21.6868ZM61.5439 14.2506L64.8635 6.01191L68.1832 14.2506H61.5439Z" fill="#1A2545"/>
<path fill-rule="evenodd" clip-rule="evenodd" d="M64.3294 0.968765H65.335L74.1333 21.9687H71.0466L68.9361 16.8329H60.7386L58.5958 21.9687H55.5098L64.3294 0.968765ZM64.6885 1.53246L56.3423 21.405H58.2358L60.3786 16.2692H69.2982L71.4087 21.405H73.3015L64.9756 1.53246H64.6885ZM64.8638 5.27728L68.5931 14.5325H61.1345L64.8638 5.27728ZM61.9537 13.9688H67.7739L64.8638 6.7466L61.9537 13.9688Z" fill="#1A2545"/>
<path fill-rule="evenodd" clip-rule="evenodd" d="M40.7531 12.8597C40.742 17.135 41.9819 19.2625 45.0064 19.2794C47.979 19.2625 49.219 17.135 49.2079 12.8597V1.25058H51.542V13.7156C51.542 16.0398 51.0839 18.0374 49.8822 19.4934C48.6291 20.9989 47.0729 21.6868 45.0064 21.6868C42.8881 21.6868 41.3319 20.9998 40.0788 19.4934C38.8771 18.0374 38.4189 16.0398 38.4189 13.7156V1.25058H40.7531V12.8597Z" fill="#1A2545"/>
<path fill-rule="evenodd" clip-rule="evenodd" d="M38.1455 0.968765H41.0264V12.8597L41.0264 12.8605C41.0209 14.9809 41.3278 16.5128 41.9692 17.5108C42.5951 18.4846 43.5658 18.9892 45.0063 18.9976C46.4191 18.9892 47.3773 18.486 47.9974 17.5119C48.6331 16.5134 48.9399 14.9807 48.9344 12.8605L48.9344 12.8597V0.968765H51.8153V13.7157C51.8153 16.0719 51.3518 18.1477 50.0903 19.6761L50.0896 19.677C48.7792 21.2512 47.144 21.9687 45.0064 21.9687C42.8182 21.9687 41.1824 21.2531 39.8712 19.677L39.8705 19.6761C38.609 18.1477 38.1455 16.0719 38.1455 13.7157V0.968765ZM38.6922 1.53246V13.7157C38.6922 16.0076 39.1448 17.9267 40.2866 19.3104C41.4816 20.7466 42.9581 21.405 45.0064 21.405C47.0015 21.405 48.4786 20.7466 49.6745 19.3101C50.8161 17.9265 51.2686 16.0074 51.2686 13.7157V1.53246H49.4812L49.4812 12.8589C49.4812 12.8591 49.4812 12.8588 49.4812 12.8589C49.4867 15.0138 49.1792 16.6829 48.4545 17.8212C47.7146 18.9835 46.5669 19.5525 45.0079 19.5613H45.0049C43.4217 19.5525 42.2607 18.9849 41.5135 17.8222C40.7816 16.6834 40.4741 15.014 40.4797 12.8593V1.53246H38.6922Z" fill="#1A2545"/>
<path fill-rule="evenodd" clip-rule="evenodd" d="M24.6054 21.6868H33.2973L32.2841 19.3864H26.9396L26.923 1.25058H24.5889L24.6054 21.6868Z" fill="#1A2545"/>
<path fill-rule="evenodd" clip-rule="evenodd" d="M24.3154 0.968765H27.1963L27.2128 19.1046H32.4603L33.7218 21.9687H24.3324L24.3154 0.968765ZM24.8626 1.53246L24.8787 21.405H32.8731L32.1082 19.6683H26.6666L26.6501 1.53246H24.8626Z" fill="#1A2545"/>
<path fill-rule="evenodd" clip-rule="evenodd" d="M0.548828 21.6868H3.03858L5.17175 16.551H13.7303L15.8504 21.6868H18.3402L9.77112 1.25058L9.12476 1.25058L0.548828 21.6868ZM6.15728 14.2506L9.47695 6.01191L12.7966 14.2506H6.15728Z" fill="#1A2545"/>
<path fill-rule="evenodd" clip-rule="evenodd" d="M8.94529 0.968735H9.95087L18.7563 21.9687H15.6698L13.5496 16.8329H5.35218L3.21902 21.9687H0.132812L8.94529 0.968735ZM9.30446 1.53243L0.965084 21.405H2.85839L4.99155 16.2692H13.9111L16.0313 21.405H17.9243L9.59159 1.53243H9.30446ZM9.47707 5.27725L13.2063 14.5325H5.74781L9.47707 5.27725ZM6.56698 13.9688H12.3872L9.47707 6.74657L6.56698 13.9688Z" fill="#1A2545"/>
</svg>
